PathFileType	4	(X/Y/Z)	C:\Users\ebm\Documents\Erivelton\Erivelton2\wc5.trc
DataRate	CameraRate	NumFrames	NumMarkers	Units	OrigDataRate	OrigDataStartFrame	OrigNumFrames
150.00	150.00	      10	28	mm	150.00	564	      1126
Frame#	Time	IJ			PX			C7			T8			RAC			RAS			RPS			RAI			RPI			RLE			RME			RRS			RUS			R3M			R5M			LAC			LAS			LPS			LAI			LPI			LLE			LME			LRS			LUS			L3M			L5M			RW			LW			V_mid_elbow_r			V_mid_elbow_l			V_mid_wrist_r			V_mid_wrist_l			V_mid_trunk_low			V_mid_trunk_upp			
		X1	Y1	Z1	X2	Y2	Z2	X3	Y3	Z3	X4	Y4	Z4	X5	Y5	Z5	X6	Y6	Z6	X7	Y7	Z7	X8	Y8	Z8	X9	Y9	Z9	X10	Y10	Z10	X11	Y11	Z11	X12	Y12	Z12	X13	Y13	Z13	X14	Y14	Z14	X15	Y15	Z15	X16	Y16	Z16	X17	Y17	Z17	X18	Y18	Z18	X19	Y19	Z19	X20	Y20	Z20	X21	Y21	Z21	X22	Y22	Z22	X23	Y23	Z23	X24	Y24	Z24	X25	Y25	Z25	X26	Y26	Z26	X27	Y27	Z27	X28	Y28	Z28	

564	3.753	-50.14870	999.28082	-9.12574	-91.38110	831.83447	7.77480	-151.00591	1126.60840	-8.34611	-264.79529	1007.74957	4.52671	-76.39185	1038.64624	196.21976	-60.36325	851.18909	251.27390	-104.69103	859.92157	272.81616	-54.70847	776.82874	275.66507	-102.52581	782.69098	298.50085	-94.55901	719.06158	307.51035	-135.78523	698.07849	245.63976	60.21511	489.14212	299.17358	15.50115	492.42886	339.43100	49.94339	404.77963	337.20206	13.33389	413.14371	350.65866	-108.56667	1036.29871	-195.34145	-119.39629	876.11444	-272.00381	-167.36444	873.44257	-272.94171	-109.43405	798.94293	-295.32285	-163.59599	792.76172	-295.78601	-123.65302	711.92078	-319.30182	-169.84947	692.62061	-265.87073	42.92575	496.49130	-276.45197	2.57733	482.40067	-325.70688	37.97728	407.03378	-318.05338	2.31111	421.73456	-334.12439	-231.10408	300.19147	321.25443	-233.47342	297.86850	-308.30319	
565	3.760	-40.98598	1000.32654	-9.01624	-81.75079	832.89105	7.91482	-142.55110	1127.24194	-8.45325	-254.88734	1007.41174	4.44733	-68.02937	1040.36816	196.25838	-53.68674	853.32257	253.46837	-98.45621	862.46667	274.01770	-48.80651	779.22900	278.63770	-97.00761	785.52728	300.60138	-89.26969	721.66382	310.24994	-129.91716	700.34161	247.94176	66.61593	492.31918	302.87842	21.39283	495.27594	342.26343	56.77803	408.16678	340.83722	19.79564	416.01266	353.34869	-99.77080	1037.68396	-195.18442	-111.33443	877.95197	-272.61926	-159.33096	875.71960	-273.51523	-102.06468	800.89410	-296.44882	-156.31447	795.13513	-296.85629	-117.11626	714.08936	-321.05078	-163.54047	694.84442	-267.56815	50.11800	499.53979	-277.55197	9.99095	484.94968	-326.60678	46.41907	410.02618	-318.92755	10.73148	424.32053	-335.10141	-219.34883	300.03589	321.42697	-222.29213	297.80923	-308.15787	
566	3.767	-31.88605	1001.36932	-9.02864	-71.89703	833.81604	7.83917	-133.96524	1127.77563	-8.56041	-246.42682	1008.03412	4.37145	-59.73765	1042.03467	196.32979	-47.28071	855.49359	255.65848	-92.27352	865.02545	275.23987	-43.11677	781.61029	281.65070	-91.64147	788.41418	302.76666	-84.13406	724.28955	313.11368	-124.49467	702.77362	250.47868	72.73718	495.51758	306.46048	26.91799	498.17709	345.12988	63.20204	411.63278	344.68863	25.82567	418.94940	356.10602	-91.02013	1039.08850	-195.18742	-103.57497	879.82544	-273.25494	-151.68118	877.96631	-273.93640	-94.64970	802.22937	-297.56018	-149.36046	797.54681	-297.75107	-110.81683	716.30859	-322.81885	-157.28096	697.02527	-269.08258	57.11601	502.65173	-278.65204	17.23744	487.62784	-327.46912	54.61567	413.02155	-319.79443	19.09576	427.04340	-336.12723	-207.57465	300.17291	322.07596	-211.04802	297.80118	-308.18796	
567	3.773	-22.61068	1002.24683	-9.03189	-61.93302	834.58484	7.87627	-125.53276	1128.25024	-8.65435	-236.55731	1007.48846	4.34741	-51.57597	1043.72009	196.48810	-40.86628	857.62067	258.01935	-86.02901	867.62970	276.63416	-37.46109	783.95532	284.79846	-86.28966	791.33044	305.01471	-79.20554	727.06891	316.08322	-119.15733	705.11560	253.10606	78.59482	498.75647	309.87772	32.33921	501.04727	348.06042	69.34560	414.98932	348.58542	31.69757	421.91818	358.93188	-82.39552	1040.47229	-195.12283	-96.18269	881.70001	-273.89807	-144.26573	880.21985	-274.18451	-87.96441	804.16138	-298.73868	-143.18709	800.20789	-298.95724	-104.89416	718.58600	-324.52557	-151.29839	699.19476	-270.61508	64.11732	505.79996	-279.60950	24.32118	490.47180	-328.43750	62.63381	416.14795	-320.70883	27.10733	429.93039	-337.15002	-196.07520	299.98367	322.04324	-199.81099	297.74429	-308.09375	
568	3.780	-13.62014	1003.13770	-8.92891	-52.06134	835.27014	8.00784	-117.08191	1128.63611	-8.73794	-227.42958	1007.33490	4.27681	-43.40896	1045.24976	196.62772	-34.39794	859.66943	260.20773	-79.85021	870.23016	278.04675	-31.96244	786.33984	287.78159	-80.99979	794.23383	307.35782	-74.39176	729.76788	319.16513	-114.08135	707.53418	255.96284	84.07956	502.01422	313.32150	37.61629	503.86328	350.88419	75.21690	418.33853	352.23669	37.34091	424.82050	361.74728	-73.76179	1041.77917	-194.98950	-89.10473	883.69885	-274.53357	-137.03215	882.50769	-274.51849	-81.76340	806.24353	-299.71585	-136.44434	802.40955	-299.98026	-99.21130	720.78259	-326.29666	-145.46606	701.23895	-272.04691	70.93452	509.08478	-280.60706	31.34970	493.38617	-329.42145	70.39055	419.26828	-321.47266	34.85510	432.87488	-337.96417	-184.68515	299.77789	322.12021	-188.61505	297.68408	-308.02283	
569	3.787	-4.54979	1003.93146	-8.88508	-42.18589	835.82806	8.04151	-108.60133	1129.00403	-8.80571	-218.23117	1007.09650	4.23508	-35.34966	1046.76050	196.83878	-27.95895	861.67078	262.34869	-73.57991	872.84821	279.50983	-26.64555	788.66119	290.89053	-76.16813	797.49469	310.26868	-69.70899	732.57141	322.39493	-109.18395	710.04456	258.92776	89.47611	505.24567	316.58328	42.71346	506.58652	353.72009	81.08683	421.65421	355.69241	42.94090	427.66409	364.53387	-65.28658	1042.96289	-194.88266	-82.02341	885.45087	-275.12595	-130.63631	884.85651	-274.90198	-75.54666	808.19299	-300.98026	-130.35628	804.76855	-300.59305	-93.84764	723.00653	-328.06012	-140.03662	703.31238	-273.49973	77.72946	512.42133	-281.65051	38.19936	496.33658	-330.36752	77.48118	422.40164	-322.12158	42.19245	435.97366	-338.60995	-173.45825	299.39474	321.58875	-177.59016	297.74838	-308.01810	
570	3.793	4.62194	1004.71002	-8.83169	-32.14182	836.46472	8.07952	-100.15402	1129.32251	-8.87378	-209.11818	1006.78632	4.18261	-27.20139	1048.13440	197.05009	-21.69841	863.61395	264.42587	-67.31819	875.48016	281.02310	-21.39878	790.94873	293.91891	-70.89404	800.59113	312.76877	-65.12824	735.43695	325.63919	-104.73939	712.53247	262.28000	94.54617	508.45142	319.73083	47.67031	509.32767	356.49310	86.84238	425.06436	358.88232	48.56319	430.45898	367.10980	-56.78680	1044.11584	-194.77902	-75.21333	887.19891	-275.74457	-123.54514	887.01929	-274.64133	-69.72005	810.09967	-302.27338	-124.49255	807.11292	-301.25275	-88.65539	725.16943	-329.88043	-134.69994	705.30560	-274.90387	84.40227	515.95721	-282.97684	44.73602	499.29706	-331.33279	84.38207	425.63342	-322.80099	49.18405	439.04559	-339.12271	-162.36497	299.29568	321.59131	-166.52641	297.70035	-308.02069	
571	3.800	13.50492	1005.40295	-8.61060	-22.05557	837.00311	8.10452	-91.65687	1129.57397	-8.97310	-199.98038	1006.35620	4.19200	-19.10483	1049.43250	197.19081	-15.41487	865.53259	266.52795	-60.90302	878.13367	282.54474	-16.16501	793.23730	296.84631	-65.64339	803.71924	315.25970	-60.67968	738.33643	329.09482	-100.00201	715.16394	265.17813	99.52068	511.82043	322.71393	52.48859	512.07544	359.28088	92.59531	428.43927	361.69489	54.14600	433.21967	369.65417	-48.45584	1045.14380	-194.73444	-68.49473	888.83276	-276.35593	-116.75090	889.15173	-274.40182	-64.00980	812.03253	-303.67322	-118.93528	809.65503	-301.79858	-83.78127	727.31244	-331.61877	-129.54068	707.27271	-276.34528	90.92093	519.43988	-284.48318	51.01325	502.24396	-332.34967	91.00410	428.81189	-323.37585	55.81162	442.05453	-339.58545	-151.30444	299.20258	321.57187	-155.51297	297.67624	-308.04852	
572	3.807	22.66069	1006.10980	-8.46583	-11.89599	837.50720	8.20714	-83.16738	1129.75635	-9.02907	-190.79280	1005.84692	4.23374	-10.91702	1050.63367	197.37741	-9.06093	867.40985	268.44241	-54.55795	880.84442	284.04617	-11.06140	795.53741	299.75400	-60.43032	806.93054	317.75232	-56.36151	741.34088	332.45596	-95.83740	717.86334	268.67813	104.16541	515.17896	325.61572	57.13514	514.92523	361.98611	98.37434	431.90927	364.30283	59.72882	436.02936	372.04678	-40.14532	1046.09265	-194.76604	-62.12114	890.52765	-277.00897	-110.37476	891.18365	-274.11157	-58.58915	813.99591	-305.07693	-113.46355	811.97534	-302.27606	-79.17427	729.44238	-333.39490	-124.58701	709.17719	-277.73074	97.35073	522.99878	-286.06888	56.94590	505.08862	-333.32590	97.24854	431.97000	-323.91605	62.19074	445.00424	-339.88708	-140.23512	299.07678	321.44000	-144.57495	297.61578	-308.05423	
573	3.813	31.63997	1006.66650	-8.45400	-1.68265	838.02356	8.29297	-75.14755	1129.82922	-9.51572	-181.63815	1005.26691	4.27675	-2.63508	1051.70178	197.55954	-2.88172	869.21289	270.37952	-48.22581	883.57648	285.52283	-6.08916	797.81439	302.63052	-55.28495	810.15082	320.20123	-52.21302	744.43140	335.92377	-91.94611	720.70978	272.26181	108.67542	518.63135	328.27823	61.73599	517.80396	364.57285	104.05322	435.49448	366.63400	65.32822	438.82956	374.33914	-31.98836	1046.96924	-194.85680	-55.98810	892.19568	-277.60056	-103.98270	893.14227	-273.78558	-53.48153	815.92688	-306.43423	-108.18400	814.28674	-302.73672	-74.75089	731.55139	-335.13721	-120.35103	711.57062	-279.53018	103.39928	526.61517	-287.81210	62.65045	507.76987	-334.22089	103.69234	435.12152	-324.29980	68.44711	447.81845	-340.05325	-129.24316	299.36325	321.82980	-133.56039	297.57260	-308.14633	
